name Walk6.mot
datacolumns 19
datarows 12
range 2.09500000 2.15000000
endheader

                time	   L_ground_force_vx	   L_ground_force_vy	   L_ground_force_vz	   L_ground_force_px	   L_ground_force_py	   L_ground_force_pz	   R_ground_force_vx	   R_ground_force_vy	   R_ground_force_vz	   R_ground_force_px	   R_ground_force_py	   R_ground_force_pz	   L_ground_torque_x	   L_ground_torque_y	   L_ground_torque_z	   R_ground_torque_x	   R_ground_torque_y	   R_ground_torque_z	
          2.09500000	        -20.10284676	        133.36083267	        -10.86973696	         -0.11607381	          0.00000000	         -0.02602621	          0.00000000	         -0.00000000	         -0.00000000	         -0.00000000	          0.00000000	         -0.00000000	          0.00000000	          0.20231133	          0.00000000	          0.00000000	         -0.00000000	          0.00000000	
          2.10000000	        -28.18545836	        188.28719974	        -14.96421916	         -0.14601068	          0.00000000	         -0.03281435	          0.00000000	         -0.00000000	         -0.00000000	         -0.00000000	          0.00000000	         -0.00000000	          0.00000000	          0.31412957	          0.00000000	          0.00000000	         -0.00000000	          0.00000000	
          2.10500000	        -37.33642585	        250.75166950	        -19.51111777	         -0.17502561	          0.00000000	         -0.03942619	          0.00000000	         -0.00000000	         -0.00000000	         -0.00000000	          0.00000000	         -0.00000000	          0.00000000	          0.44971895	          0.00000000	          0.00000000	         -0.00000000	          0.00000000	
          2.11000000	        -47.23386646	        317.66491864	        -24.25895922	         -0.20105637	          0.00000000	         -0.04539832	          0.00000000	         -0.00000000	         -0.00000000	         -0.00000000	          0.00000000	         -0.00000000	          0.00000000	          0.60541340	          0.00000000	          0.00000000	         -0.00000000	          0.00000000	
          2.11500000	        -57.64837687	        384.98943615	        -28.84832254	         -0.22298981	          0.00000000	         -0.05049305	          0.00000000	         -0.00000000	         -0.00000000	         -0.00000000	          0.00000000	         -0.00000000	          0.00000000	          0.77382371	          0.00000000	          0.00000000	         -0.00000000	          0.00000000	
          2.12000000	        -68.39311290	        448.91905649	        -32.78568229	         -0.24044102	          0.00000000	         -0.05464913	          0.00000000	         -0.00000000	         -0.00000000	         -0.00000000	          0.00000000	         -0.00000000	          0.00000000	          0.94553128	          0.00000000	          0.00000000	         -0.00000000	          0.00000000	
          2.12500000	        -79.09380283	        506.59658285	        -35.56956029	         -0.25352917	          0.00000000	         -0.05791692	          0.00000000	         -0.00000000	         -0.00000000	         -0.00000000	          0.00000000	         -0.00000000	          0.00000000	          1.10938462	          0.00000000	          0.00000000	         -0.00000000	          0.00000000	
          2.13000000	        -89.08467680	        556.11363586	        -36.87115597	         -0.26268682	          0.00000000	         -0.06040731	          0.00000000	         -0.00000000	         -0.00000000	          0.00000000	          0.00000000	          0.00000000	          0.00000000	          1.25164954	          0.00000000	          0.00000000	         -0.00000000	          0.00000000	
          2.13500000	        -97.55334932	        596.47675374	        -36.55296133	         -0.26850792	          0.00000000	         -0.06226010	         -0.00000000	          0.00000000	          0.00000000	          0.00000000	          0.00000000	          0.00000000	          0.00000000	          1.35741514	          0.00000000	          0.00000000	          0.00000000	          0.00000000	
          2.14000000	       -103.88748558	        627.57232658	        -34.57968741	         -0.27163348	          0.00000000	         -0.06362397	         -0.00000000	          0.00000000	          0.00000000	          0.00000000	          0.00000000	          0.00000000	          0.00000000	          1.41293888	          0.00000000	          0.00000000	          0.00000000	          0.00000000	
          2.14500000	       -107.99155226	        649.93916017	        -30.96108041	         -0.27267233	          0.00000000	         -0.06464168	         -0.00000000	          0.00000000	          0.00000000	          0.00000000	          0.00000000	          0.00000000	          0.00000000	          1.40796572	          0.00000000	          0.00000000	          0.00000000	          0.00000000	
          2.15000000	       -110.29804657	        664.56396770	        -25.76231279	         -0.27215555	          0.00000000	         -0.06543960	         -0.00000000	          0.00000000	          0.00000000	          0.00000000	          0.00000000	          0.00000000	          0.00000000	          1.33822272	          0.00000000	          0.00000000	          0.00000000	          0.00000000	
